<?xml version="1.0" encoding="iso-8859-1"?>
<!-- Generator: Adobe Illustrator 19.0.0, SVG Export Plug-In . SVG Version: 6.00 Build 0)  -->
<svg version="1.1" id="Capa_1" xmlns="http://www.w3.org/2000/svg" xmlns:xlink="http://www.w3.org/1999/xlink" x="0px" y="0px"
	 viewBox="0 0 512 512" style="enable-background:new 0 0 512 512;" xml:space="preserve">
<circle style="fill:#303F9E;" cx="256" cy="256" r="256"/>
<path style="fill:#283592;" d="M512,256c0-4.946-0.155-9.855-0.432-14.732L349.069,78.77l-21.961,36.005L266,53.667l-7.183,184.76
	l-157.173-35.292l57.631,57.63L60,266l57.412,57.412l-7.13,4.021l27.463,27.462l-25.627,11.986l21.442,21.442l-9.086,13.336
	l109.375,109.375C241.151,511.662,248.536,512,256,512C397.385,512,512,397.385,512,256z"/>
<g>
	<rect x="246" y="53.667" style="fill:#FEF49C;" width="20" height="398.33"/>
	<rect x="60" y="246" style="fill:#FEF49C;" width="392" height="20"/>
	
		<rect x="224.878" y="111.007" transform="matrix(-0.7071 -0.7071 0.7071 -0.7071 205.0047 639.1661)" style="fill:#FEF49C;" width="20" height="332.237"/>
	
		<rect x="69.753" y="250.035" transform="matrix(-0.7071 -0.7071 0.7071 -0.7071 260.0375 627.7811)" style="fill:#FEF49C;" width="380.566" height="20"/>
	
		<rect x="256.846" y="59.516" transform="matrix(-0.9166 -0.3999 0.3999 -0.9166 414.5617 570.9727)" style="fill:#FEF49C;" width="20.001" height="365.444"/>
	
		<rect x="92.954" y="246.948" transform="matrix(-0.9244 -0.3814 0.3814 -0.9244 399.049 592.9852)" style="fill:#FEF49C;" width="330.667" height="20"/>
	
		<rect x="260.732" y="71.956" transform="matrix(-0.384 -0.9233 0.9233 -0.384 143.9832 595.797)" style="fill:#FEF49C;" width="19.999" height="355.829"/>
	
		<rect x="105.529" y="244.003" transform="matrix(-0.384 -0.9233 0.9233 -0.384 118.6576 587.1669)" style="fill:#FEF49C;" width="299.321" height="19.999"/>
</g>
<polygon style="fill:#FEED58;" points="452,246 306.092,246 438.84,190.792 431.16,172.326 298.745,227.395 359.404,166.737 
	345.262,152.595 294.874,202.982 349.069,78.77 330.738,70.771 266,219.147 266,53.667 255.506,53.667 255.506,228.767 
	255.506,241.362 255.506,242.349 255.506,243.198 255.506,244.977 255.506,245.377 255.506,246 255.506,266 255.506,266.612 
	255.506,267.038 255.506,269.646 255.506,270.632 255.506,280.852 255.506,293.209 255.506,452 266,452 266,306.085 
	303.411,396.044 321.877,388.364 284.61,298.75 387.523,401.663 401.666,387.521 298.489,284.345 407.323,329.246 414.951,310.757 
	306.464,266 452,266 "/>
<polygon style="fill:#FEB200;" points="112.118,366.882 256,77 399.882,366.881 "/>
<polygon style="fill:#FEAA00;" points="256,77 255.506,77.996 255.506,366.881 399.882,366.881 "/>
<path style="fill:#FFFFFF;" d="M386.512,256c0,0-58.432,77.64-130.512,77.64S125.488,256,125.488,256S183.92,178.36,256,178.36
	S386.512,256,386.512,256z"/>
<path style="fill:#E6E6E6;" d="M256,178.36c-0.165,0-0.329,0.007-0.494,0.008v155.263c0.165,0.001,0.329,0.008,0.494,0.008
	c72.08,0,130.512-77.64,130.512-77.64S328.08,178.36,256,178.36z"/>
<path style="fill:#788F9B;" d="M256,341.14c-31.229,0-64.788-14.014-97.048-40.525c-24.033-19.751-38.838-39.283-39.457-40.104
	l-3.394-4.51l3.394-4.51c0.619-0.822,15.423-20.353,39.457-40.104c32.26-26.512,65.818-40.525,97.048-40.525
	s64.788,14.014,97.048,40.525c24.033,19.751,38.838,39.283,39.457,40.104l3.394,4.51l-3.394,4.51
	c-0.619,0.822-15.423,20.353-39.457,40.104C320.788,327.126,287.229,341.14,256,341.14z M135.135,256
	c13.574,16.16,63.244,70.14,120.865,70.14S363.289,272.162,376.865,256c-13.576-16.162-63.244-70.14-120.865-70.14
	S148.711,239.839,135.135,256z"/>
<path style="fill:#607D8A;" d="M392.504,251.49c-0.619-0.822-15.423-20.353-39.457-40.104
	c-32.26-26.512-65.818-40.525-97.048-40.525c-0.164,0-0.33,0.006-0.494,0.007v15c0.165-0.001,0.329-0.007,0.494-0.007
	c57.621,0,107.289,53.978,120.865,70.14c-13.576,16.162-63.244,70.14-120.865,70.14c-0.165,0-0.329-0.006-0.494-0.007v15
	c0.164,0.001,0.33,0.007,0.494,0.007c31.229,0,64.788-14.014,97.048-40.525c24.033-19.751,38.838-39.283,39.457-40.104l3.394-4.51
	L392.504,251.49z"/>
<circle style="fill:#00AFFE;" cx="255.72" cy="255.15" r="67.22"/>
<path style="fill:#03A8F3;" d="M255.718,187.934c-0.071,0-0.141,0.005-0.212,0.006v134.43c0.071,0,0.141,0.005,0.212,0.005
	c37.125,0,67.22-30.096,67.22-67.221S292.843,187.934,255.718,187.934z"/>
<circle style="fill:#01579A;" cx="255.72" cy="255.15" r="29.897"/>
<path style="fill:#004472;" d="M255.718,225.257c-0.071,0-0.141,0.005-0.212,0.005v59.783c0.071,0,0.141,0.005,0.212,0.005
	c16.512,0,29.897-13.385,29.897-29.897S272.23,225.257,255.718,225.257z"/>
<g>
</g>
<g>
</g>
<g>
</g>
<g>
</g>
<g>
</g>
<g>
</g>
<g>
</g>
<g>
</g>
<g>
</g>
<g>
</g>
<g>
</g>
<g>
</g>
<g>
</g>
<g>
</g>
<g>
</g>
</svg>
